<svg width="28" height="28" viewBox="0 0 28 28" fill="none" xmlns="http://www.w3.org/2000/svg">
<circle cx="23.1875" cy="23.1875" r="1.3125" fill="#818181"/>
<circle cx="17.0625" cy="23.1875" r="1.3125" fill="#818181"/>
<circle cx="20.125" cy="20.125" r="0.875" fill="#818181"/>
<circle cx="23.1875" cy="17.0625" r="1.3125" fill="#818181"/>
<circle cx="17.0625" cy="17.0625" r="1.3125" fill="#818181"/>
<path fill-rule="evenodd" clip-rule="evenodd" d="M6.125 16.625H9.625C10.5915 16.625 11.375 17.4085 11.375 18.375V21.875C11.375 22.8415 10.5915 23.625 9.625 23.625H6.125C5.1585 23.625 4.375 22.8415 4.375 21.875V18.375C4.375 17.4085 5.1585 16.625 6.125 16.625Z" stroke="#818181" stroke-width="1.75" stroke-linecap="round" stroke-linejoin="round"/>
<path fill-rule="evenodd" clip-rule="evenodd" d="M18.375 4.375H21.875C22.8415 4.375 23.625 5.1585 23.625 6.125V9.625C23.625 10.5915 22.8415 11.375 21.875 11.375H18.375C17.4085 11.375 16.625 10.5915 16.625 9.625V6.125C16.625 5.1585 17.4085 4.375 18.375 4.375Z" stroke="#818181" stroke-width="1.75" stroke-linecap="round" stroke-linejoin="round"/>
<path fill-rule="evenodd" clip-rule="evenodd" d="M6.125 4.375H9.625C10.5915 4.375 11.375 5.1585 11.375 6.125V9.625C11.375 10.5915 10.5915 11.375 9.625 11.375H6.125C5.1585 11.375 4.375 10.5915 4.375 9.625V6.125C4.375 5.1585 5.1585 4.375 6.125 4.375Z" stroke="#818181" stroke-width="1.75" stroke-linecap="round" stroke-linejoin="round"/>
</svg>
